<svg width="32" height="32" viewBox="0 0 32 32" fill="none" xmlns="http://www.w3.org/2000/svg">
<g clip-path="url(#clip0_0_1)">
<path d="M26 0H6C2.68629 0 0 2.68629 0 6V26C0 29.3137 2.68629 32 6 32H26C29.3137 32 32 29.3137 32 26V6C32 2.68629 29.3137 0 26 0Z" fill="url(#paint0_linear_0_1)"/>
<path d="M27.3137 4.68629C23.3485 13.8809 23.3485 18.1191 27.3137 27.3137C18.1191 23.3485 13.8809 23.3485 4.6863 27.3137C8.65148 18.1191 8.65148 13.8809 4.6863 4.68629C13.8809 8.65148 18.1191 8.65148 27.3137 4.68629Z" fill="#0D6EFD"/>
<path d="M21.9914 11.7523C20.9712 14.8582 20.9714 17.1445 21.9921 20.2506C22.1545 20.7451 22.0248 21.2888 21.6568 21.6568C21.2889 22.0248 20.7451 22.1545 20.2506 21.9921C17.1426 20.9732 14.8563 20.9731 11.7504 21.9933C11.2559 22.1556 10.7121 22.0258 10.3441 21.6578C9.97601 21.2897 9.84629 20.7459 10.0086 20.2515C11.0269 17.1437 11.0268 14.8574 10.006 11.7513C9.84366 11.2568 9.97329 10.713 10.3413 10.345C10.7093 9.977 11.253 9.84737 11.7476 10.0097C14.8555 11.0286 17.1418 11.0288 20.2477 10.0086C20.7429 9.84491 21.288 9.97435 21.6568 10.3431C22.0256 10.7119 22.1551 11.2571 21.9914 11.7523Z" fill="#0056B3"/>
<path d="M18 13.5C18 14.6046 17.1046 15.5 16 15.5C14.8954 15.5 14 14.6046 14 13.5C14 12.3954 14.8954 11.5 16 11.5C17.1046 11.5 18 12.3954 18 13.5Z" fill="#F2F2F2"/>
<path d="M12 18.7857C12 17.5233 13.0233 16.5 14.2857 16.5H17.7143C18.9767 16.5 20 17.5233 20 18.7857C20 19.7325 19.2325 20.5 18.2857 20.5H13.7143C12.7675 20.5 12 19.7325 12 18.7857Z" fill="#F2F2F2"/>
</g>
<defs>
<linearGradient id="paint0_linear_0_1" x1="0" y1="0" x2="32" y2="32" gradientUnits="userSpaceOnUse">
<stop stop-color="#0D6EFD"/>
<stop offset="1" stop-color="#0056B3"/>
</linearGradient>
<clipPath id="clip0_0_1">
<rect width="32" height="32" fill="white"/>
</clipPath>
</defs>
</svg>
