<svg id="ea7bI2DqXO81" xmlns="http://www.w3.org/2000/svg" xmlns:xlink="http://www.w3.org/1999/xlink" viewBox="0 0 32 32" shape-rendering="geometricPrecision" text-rendering="geometricPrecision" project-id="6103451e205a44228db99a6cedfe6e4c" export-id="301d909334aa4698a4bd8dfa52bce3b0" cached="false"><defs><linearGradient id="ea7bI2DqXO82-fill" x1="0" y1="0" x2="1" y2="1" spreadMethod="pad" gradientUnits="objectBoundingBox" gradientTransform="translate(0 0)"><stop id="ea7bI2DqXO82-fill-0" offset="0%" stop-color="#0ea5e9"/><stop id="ea7bI2DqXO82-fill-1" offset="100%" stop-color="#3b82f6"/></linearGradient></defs><rect width="32" height="32" rx="6" ry="6" fill="url(#ea7bI2DqXO82-fill)"/><path d="M81.5,55C63.18,62.28,57.28,68.18,50,86.5C42.72,68.18,36.82,62.28,18.5,55C36.82,47.72,42.72,41.82,50,23.5C57.28,41.82,63.18,47.72,81.5,55Z" transform="matrix(.262471 0.262471-.262471 0.262471 17.312355-11.559451)" fill="#5483cc"/><path d="M77.55,54.69C66.45,60.3,60.3,66.45,54.69,77.55c-.893514,1.766862-2.705058,2.880765-4.685,2.880765s-3.791486-1.113903-4.685-2.880765C39.7,66.45,33.55,60.3,22.45,54.69c-1.766862-.893514-2.880765-2.705058-2.880765-4.685s1.113903-3.791486,2.880765-4.685C33.55,39.7,39.7,33.55,45.31,22.45c.893514-1.766862,2.705058-2.880765,4.685-2.880765s3.791486,1.113903,4.685,2.880765C60.3,33.55,66.45,39.7,77.55,45.31c1.772319.891572,2.890678,2.70606,2.890678,4.69s-1.118359,3.798428-2.890678,4.69Z" transform="matrix(.085006 0.085006-.085006 0.085006 15.999579 7.499024)" fill="#0ea5e9"/></svg>
